<?xml version="1.0" standalone="no"?><!DOCTYPE svg PUBLIC "-//W3C//DTD SVG 1.1//EN" "http://www.w3.org/Graphics/SVG/1.1/DTD/svg11.dtd"><svg t="1598668374282" class="icon" viewBox="0 0 1024 1024" version="1.1" xmlns="http://www.w3.org/2000/svg" p-id="2162" xmlns:xlink="http://www.w3.org/1999/xlink" width="80" height="80"><defs><style type="text/css"></style></defs><path d="M903.1 665.6H583.2c-57.6-0.2-104.6-47.1-104.7-104.7v-97.3c0.2-57.6 47.1-104.6 104.7-104.7h320v41.4h-320c-34.8 0.1-63.3 28.6-63.4 63.4v97.2c0.1 34.8 28.6 63.3 63.4 63.4h319.9v41.3z" fill="#231815" p-id="2163"></path><path d="M553.1 512.2c0 16.6 13.5 30.1 30.1 30.1s30.1-13.5 30.1-30.1-13.5-30.1-30.1-30.1c-16.7 0-30.1 13.5-30.1 30.1z m0 0" fill="#231815" p-id="2164"></path><path d="M867 893.5H157.7c-34.2 0-62-27.8-62-62V192.9c0-34.2 27.8-62 62-62H867c34.2 0 62 27.8 62 62v638.6c0 34.2-27.8 62-62 62zM157.7 172.3c-11.4 0-20.7 9.3-20.7 20.7v638.6c0 11.4 9.3 20.7 20.7 20.7H867c11.4 0 20.7-9.3 20.7-20.7V192.9c0-11.4-9.3-20.7-20.7-20.7H157.7z" fill="#231815" p-id="2165"></path></svg>