<?xml version="1.0" standalone="no"?><!DOCTYPE svg PUBLIC "-//W3C//DTD SVG 1.1//EN" "http://www.w3.org/Graphics/SVG/1.1/DTD/svg11.dtd"><svg t="1598606313371" class="icon" viewBox="0 0 1024 1024" version="1.1" xmlns="http://www.w3.org/2000/svg" p-id="1599" xmlns:xlink="http://www.w3.org/1999/xlink" width="80" height="80"><defs><style type="text/css"></style></defs><path d="M201.142857 1024c-8.126984 0-15.238095-3.047619-21.333333-9.142857-12.190476-12.190476-12.190476-31.492063 0-42.666667l424.634921-424.634921c9.142857-9.142857 14.222222-21.333333 14.222222-34.539683 0-13.206349-5.079365-25.396825-14.222222-34.539683L178.793651 51.809524c-12.190476-12.190476-12.190476-31.492063 0-42.666667 12.190476-12.190476 31.492063-12.190476 42.666667 0l425.650794 425.650794c42.666667 42.666667 42.666667 112.761905 0 155.428571L223.492063 1014.857143C217.396825 1020.952381 209.269841 1024 201.142857 1024z" p-id="1600"></path></svg>